<svg id="Layer_1" data-name="Layer 1" xmlns="http://www.w3.org/2000/svg" viewBox="0 0 71.62 49.95"><title>Untitled-3</title><path d="M60.75,42.45l-0.9,1.27-2.4-5.85S59.93,38,60.9,36.6L64,43.72Zm-4.65-5.4A0.32,0.32,0,0,1,55.57,37a1.32,1.32,0,0,0-1.43-.52,0.42,0.42,0,0,1-.52-0.3,1.13,1.13,0,0,0-1.12-.9,0.38,0.38,0,0,1-.37-0.45,1.16,1.16,0,0,0-.68-1.2,0.45,0.45,0,0,1-.23-0.67A1.13,1.13,0,0,0,51,31.66c-0.3-.37-0.3-0.37,0-0.75a1,1,0,0,0,.23-1.27c-0.07-.3-0.15-0.52.23-0.68a1.16,1.16,0,0,0,.68-1.27,0.32,0.32,0,0,1,.38-0.37c0.07,0,.15-0.07.23-0.07a0.88,0.88,0,0,0,.82-0.68c0.23-.52.23-0.52,0.9-0.52,0.45,0.23.75-.15,1.05-0.52a0.42,0.42,0,0,1,.67-0.08,1.13,1.13,0,0,0,1.35,0,0.39,0.39,0,0,1,.6.08,1.45,1.45,0,0,0,1.43.52c0.23-.07.38,0,0.45,0.3a1.2,1.2,0,0,0,1.13,1,0.38,0.38,0,0,1,.38.45A1.26,1.26,0,0,0,62.18,29a0.42,0.42,0,0,1,.23.6,1.15,1.15,0,0,0,.3,1.43c0.15,0.23.23,0.37,0,.52a1.26,1.26,0,0,0-.23,1.5,0.46,0.46,0,0,1-.15.52A1.32,1.32,0,0,0,61.58,35a0.3,0.3,0,0,1-.3.38,1.35,1.35,0,0,0-1.2,1.05,0.32,0.32,0,0,1-.45.23,1.32,1.32,0,0,0-1.5.52,0.32,0.32,0,0,1-.52.07A1.16,1.16,0,0,0,56.1,37.05ZM54.3,43.8l-0.9-1.27L50.1,43.8l3.07-7.12c1,1.43,3.45,1.27,3.45,1.27ZM32.47,26.55H7.42l0.9-2.25H33.37ZM9.07,19.73h46.5L53.93,22H7.43Zm0.6-4.87h46.5L54.52,17.1H8ZM10.2,10.2H56.7l-1.65,2.25H8.55ZM67.8,3.38H3.67V46.73H67.8V3.38Z"/><path d="M56.92,35a3.82,3.82,0,1,1,3.83-3.82A3.79,3.79,0,0,1,56.92,35Zm4.8-3.75A4.73,4.73,0,1,0,57,36,4.81,4.81,0,0,0,61.72,31.27Z"/><path d="M69.52,48.45H1.95V1.65H69.52v46.8ZM0.45,0H0V49.95H71.62V0H0.45Z"/></svg>