<svg id="Layer_1" data-name="Layer 1" xmlns="http://www.w3.org/2000/svg" viewBox="0 0 64.67 66.67"><title>Untitled-3</title><path d="M15.29,2.83v13.8H1V4.8Zm0,15.56V32L1,30.06V18.39H15.29ZM35.86,0V16.63h-19v-14Zm0,18.39V34.86l-19-2.62V18.39h19Z" transform="translate(-1)"/><path d="M65.67,56.24A22.44,22.44,0,0,1,62.81,62q-3,4.55-6,4.55a10.72,10.72,0,0,1-3.25-.74,10.23,10.23,0,0,0-3.51-.75,9,9,0,0,0-3.3.77,8.42,8.42,0,0,1-3.07.79q-3.53,0-7-6A23.81,23.81,0,0,1,33.31,49a13.77,13.77,0,0,1,2.63-8.69,8,8,0,0,1,6.6-3.34,15.46,15.46,0,0,1,4.11.69,15,15,0,0,0,3.21.7,11.67,11.67,0,0,0,3.32-.79,13.15,13.15,0,0,1,4-.79,8.49,8.49,0,0,1,4.95,1.51,12.09,12.09,0,0,1,2.42,2.32,15,15,0,0,0-2.65,2.74,8.28,8.28,0,0,0-1.51,4.81A8.84,8.84,0,0,0,62,53.31,7.08,7.08,0,0,0,65.67,56.24ZM56.93,29a8.86,8.86,0,0,1-.67,3.16,9.54,9.54,0,0,1-2.16,3.2A6.55,6.55,0,0,1,51.59,37a13.21,13.21,0,0,1-2.42.4,10.58,10.58,0,0,1,1.81-6Q52.71,29,56.79,28a2.08,2.08,0,0,1,.06.26,2.07,2.07,0,0,0,.06.26c0,0.06,0,.14,0,0.23S56.93,28.93,56.93,29Z" transform="translate(-1)"/></svg>