<svg id="Layer_1" data-name="Layer 1" xmlns="http://www.w3.org/2000/svg" viewBox="0 0 48.9 72.6"><title>research</title><path d="M5.47,22.73A19,19,0,1,0,37.87,9.3,19,19,0,0,0,5.47,22.73ZM8.32,38.85A22.75,22.75,0,1,1,26.4,45.53v2.7h1.27V69.45a3.17,3.17,0,0,1-3.15,3.15,3.39,3.39,0,0,1-2.25-.9,3.05,3.05,0,0,1-.9-2.25V48.15h1.27v-2.7A23,23,0,0,1,8.32,38.85Zm9.15,11.93V48.45a26.26,26.26,0,0,1-7.27-3.23,62,62,0,0,0-8.4,5.93A4.88,4.88,0,0,0,0,54.9v6.9H17.48v-11ZM48.9,61.73v-6.9a4.88,4.88,0,0,0-1.8-3.75,85.07,85.07,0,0,0-8.4-5.93,26.37,26.37,0,0,1-7.27,3.23V61.73H48.9ZM14.32,28.05V18A9.06,9.06,0,0,1,23.4,8.93h2.1A9.06,9.06,0,0,1,34.57,18V28.05a4.55,4.55,0,0,1-2,3.75v3.75a14.85,14.85,0,0,1-8.1,2.32,15.23,15.23,0,0,1-8.1-2.32V31.8A4.55,4.55,0,0,1,14.32,28.05Z"/></svg>