<svg id="Layer_1" data-name="Layer 1" xmlns="http://www.w3.org/2000/svg" viewBox="0 0 64.45 64.45"><defs><style>.cls-1{fill:none;stroke:#000;stroke-miterlimit:10;}</style></defs><title>wireframe</title><rect x="35.05" y="44.41" width="20.63" height="0.94"/><rect x="35.05" y="47.23" width="20.63" height="0.94"/><rect x="35.05" y="50.04" width="20.63" height="0.94"/><rect x="35.05" y="35.98" width="20.63" height="0.94"/><rect x="35.05" y="38.79" width="20.63" height="0.94"/><rect x="35.05" y="41.6" width="20.63" height="0.94"/><rect x="35.05" y="27.54" width="20.63" height="0.94"/><rect x="35.05" y="30.35" width="20.63" height="0.94"/><rect x="35.05" y="33.16" width="20.63" height="0.94"/><rect x="8.8" y="44.41" width="20.63" height="0.94"/><rect x="8.8" y="47.23" width="20.63" height="0.94"/><rect x="8.8" y="50.04" width="20.63" height="0.94"/><rect x="8.8" y="35.98" width="20.63" height="0.94"/><rect x="8.8" y="38.79" width="20.63" height="0.94"/><rect x="8.8" y="41.6" width="20.63" height="0.94"/><rect x="8.8" y="33.16" width="20.63" height="0.94"/><rect x="35.05" y="19.1" width="20.63" height="0.94"/><rect x="35.05" y="21.91" width="20.63" height="0.94"/><rect x="35.05" y="24.73" width="20.63" height="0.94"/><rect x="35.05" y="16.29" width="20.63" height="0.94"/><rect x="35.05" y="13.48" width="20.63" height="0.94"/><rect class="cls-1" x="8.8" y="13.48" width="20.63" height="14.06"/><path d="M0.94,9.18A8.25,8.25,0,0,1,9.18.94H63.52V55.27a8.25,8.25,0,0,1-8.24,8.24H0.94V9.18ZM64.45,55.27V0H9.18A9.18,9.18,0,0,0,0,9.18V64.45H55.27A9.18,9.18,0,0,0,64.45,55.27Z"/><line class="cls-1" x1="8.8" y1="13.48" x2="29.42" y2="27.54"/><line class="cls-1" x1="8.8" y1="27.54" x2="29.42" y2="13.48"/></svg>