<svg id="Layer_1" data-name="Layer 1" xmlns="http://www.w3.org/2000/svg" viewBox="0 0 67.81 73.61"><title>Untitled-3</title><path d="M26.55,59.81h0a2.89,2.89,0,0,1,2.89-2.89H47.68c3.85,0,3.85,5.77,0,5.77H29.45a2.89,2.89,0,0,1-2.89-2.89h0Zm0-11.5h0a2.89,2.89,0,0,1,2.89-2.89H64.93c3.85,0,3.85,5.77,0,5.77H29.45A2.89,2.89,0,0,1,26.55,48.31Zm0-11.5h0a2.89,2.89,0,0,1,2.89-2.89H64.93c3.85,0,3.85,5.77,0,5.77H29.45A2.89,2.89,0,0,1,26.55,36.8Zm0-11.5h0a2.89,2.89,0,0,1,2.89-2.89H64.93c3.85,0,3.85,5.77,0,5.77H29.45a2.89,2.89,0,0,1-2.89-2.89h0ZM67.81,13.8h0a2.89,2.89,0,0,1-2.89,2.89H29.45c-3.85,0-3.85-5.77,0-5.77H64.93A2.89,2.89,0,0,1,67.81,13.8ZM4.36,7.15h0A1.74,1.74,0,0,1,5.72,5.43a1.69,1.69,0,0,1,2,1.66V56.24a0.56,0.56,0,0,0,.52.56c0.45,0,.92,0,1.4,0a19.39,19.39,0,0,0,5-.58h0.05v1.32a1.68,1.68,0,0,1-.22.83L11.29,64.2H7.79l-3-5.46a1.66,1.66,0,0,1-.4-1.08ZM7.25,72.25h0a2.58,2.58,0,0,0,4.54,0l6.5-11.73A6.08,6.08,0,0,0,19,57.57V5.35A5.35,5.35,0,0,0,13.73,0H5.35A5.35,5.35,0,0,0,0,5.35V57.57a6.09,6.09,0,0,0,.75,2.95Z"/></svg>