<svg id="Layer_1" data-name="Layer 1" xmlns="http://www.w3.org/2000/svg" viewBox="0 0 246.78 216"><defs><style>.cls-1{fill:#c41230;}.cls-2{fill:#fff;}</style></defs><title>appcelerator</title><path class="cls-1" d="M245.63,203.19L130.78,4.27a8.53,8.53,0,0,0-14.78,0L1.15,203.19A8.54,8.54,0,0,0,8.54,216h229.7a8.54,8.54,0,0,0,7.4-12.81"/><path class="cls-2" d="M194.9,166.78l-27.68-12.11,3,8.06L159,164.83V109.1c0-24.22-19.69-28.54-36.11-28.54a323.54,323.54,0,0,0-35.26,2.16V99.16l1.51,1.51a274.78,274.78,0,0,1,30.06-2.16c12.11,0,19,5.62,19,15.36v9.73h-21c-19.24,0-37.62,8.21-37.62,32.65,0,24.22,14.06,30.28,29,30.28a34.86,34.86,0,0,0,29.19-15.14h0.86l-0.43,11.47,1.51,1.51,33.14-5.86-0.31,8.62,22.34-20.35m-56.68-9c-6.92,8.87-14.71,10.82-21.84,10.82-7.57,0-15.78-2.38-15.78-13.62,0-11.68,7.57-14.93,22.28-14.93h15.35v17.73h0Z"/></svg>