<?xml version="1.0" encoding="utf-8"?>
<!-- Svg Vector Icons : http://www.onlinewebfonts.com/icon -->
<!DOCTYPE svg PUBLIC "-//W3C//DTD SVG 1.1//EN" "http://www.w3.org/Graphics/SVG/1.1/DTD/svg11.dtd">
<svg version="1.1" xmlns="http://www.w3.org/2000/svg" xmlns:xlink="http://www.w3.org/1999/xlink" x="0px" y="0px" viewBox="0 0 1000 1000" enable-background="new 0 0 1000 1000" xml:space="preserve">
<metadata> Svg Vector Icons : http://www.onlinewebfonts.com/icon </metadata>
<g><path d="M659.4,157.9L634.3,217L799,164.7L722.2,10l-26.1,61.5C535,1.5,342,24.8,201,147.3l61.6,70.7C375.7,119.7,530.1,101.2,659.4,157.9z"/><path d="M340.6,842.1l25.1-59.1L201,835.3L277.8,990l26.1-61.5c161.1,70,354.1,46.8,495-75.8L737.4,782C624.3,880.3,469.9,898.8,340.6,842.1z"/><path d="M157.9,339.7l59.1,25.1l-52.2-164.6L10,277l61.5,26.1c-70,161.1-46.8,354.1,75.8,495l70.7-61.6C119.7,623.4,101.2,469,157.9,339.7z"/><path d="M928.5,695.2c70-161.1,46.8-354.1-75.8-495L782,261.7c98.3,113.1,116.8,267.5,60.1,396.8l-59.1-25.1l52.2,164.6L990,721.3L928.5,695.2z"/></g>
</svg>