<svg id="Layer_1" data-name="Layer 1" xmlns="http://www.w3.org/2000/svg" viewBox="0 0 67.5 67.5"><title>prototype</title><path d="M17.19,32.69l7.43-7.43,2.64-2.65A1.13,1.13,0,0,0,25.65,21L17.19,29.5l-1.6-1.59L19.53,24a1.13,1.13,0,1,0-1.6-1.59L14,26.3l-1.6-1.6,3.94-3.94a1.13,1.13,0,0,0-1.6-1.6L10.8,23.1,9.19,21.49,17.65,13a1.13,1.13,0,0,0-1.6-1.6L7.6,19.89,6,18.29l3.94-3.94a1.13,1.13,0,1,0-1.6-1.6L4.39,16.69l-0.84-.85c-1.33-1.32-1.69-3.11-.82-4l9.12-9.13c0.87-.87,2.66-0.51,4,0.81L31.09,18.79l1.6-1.6L17.44,1.95C15.2-.29,12-0.65,10.26,1.14L1.14,10.26C-0.65,12.05-.3,15.2,2,17.45Z"/><path d="M50.3,34.81l-1.6,1.6L63.95,51.66c1.33,1.32,1.69,3.11.81,4l-9.12,9.12c-0.87.87-2.66,0.52-4-.81l-0.85-.85,3.95-3.94a1.13,1.13,0,0,0-1.6-1.6l-3.94,3.95-1.6-1.6,8.45-8.46a1.12,1.12,0,0,0,0-1.59,1.14,1.14,0,0,0-1.6,0L46,58.31l-1.6-1.6,3.94-3.94a1.13,1.13,0,1,0-1.6-1.6l-3.95,3.94-1.6-1.6,3.94-3.95a1.13,1.13,0,0,0-1.6-1.6l-3.94,3.94L38,50.3l8.45-8.45a1.13,1.13,0,0,0-1.57-1.63L34.81,50.3,50.05,65.56c2.24,2.24,5.4,2.59,7.19.81l9.12-9.13c1.79-1.78,1.43-4.94-.82-7.19Z"/><path d="M62.39,19.68l5.07-5.07s0.84-4.2-4.76-9.8S52.9,0,52.9,0L47.82,5.12C50,5.45,53.3,6.66,57.07,10.43S62.05,17.54,62.39,19.68Z"/><path d="M23.12,51.26A0.82,0.82,0,0,1,22.55,51a0.81,0.81,0,0,1,0-1.15L52.26,20.16a0.82,0.82,0,0,1,1.15,0,0.81,0.81,0,0,1,0,1.15L23.7,51A0.83,0.83,0,0,1,23.12,51.26ZM17.21,61.52l-6.3,1.36a14.35,14.35,0,0,0-2.68-3.61,14.5,14.5,0,0,0-3.61-2.68L6,50.29,7.8,48.47s3.43,0.07,7.3,3.94S19,59.71,19,59.71Zm43.1-39.77s0.84-4.2-4.76-9.81-9.8-4.76-9.8-4.76L26.15,26.79,3.75,49.19,0,66.79l0,0.63L0.62,67.5l17.69-3.75Z"/></svg>