<svg id="corp_horz_line" xmlns="http://www.w3.org/2000/svg" viewBox="0 0 163.42 51.73"><defs><style>.cls-1{fill:none;}.cls-2{fill:#fff;}</style></defs><title>Assurant_horz_logo_white_lineart</title><rect class="cls-1" width="163.42" height="51.73"/><path class="cls-2" d="M76,30.2a1.65,1.65,0,0,0,1.9-1.5c0-1.27-1.28-1.73-2.38-2.44-1.49-.88-2.26-1.71-2.26-3,0-1.65,1.29-2.84,3.26-2.84a5.92,5.92,0,0,1,2.7.65L79.2,22.76a5.61,5.61,0,0,0-2.5-.85,1.34,1.34,0,0,0-1.59,1.23c0,1,1.24,1.47,2.25,2.12,1.64,1,2.49,1.91,2.49,3.4,0,1.87-1.4,3.2-3.7,3.2a6.75,6.75,0,0,1-2.89-.64l-0.17-2.11A5.61,5.61,0,0,0,76,30.2Z"/><path class="cls-2" d="M65.41,30.2a1.65,1.65,0,0,0,1.9-1.5c0-1.27-1.28-1.73-2.38-2.44-1.49-.88-2.26-1.71-2.26-3,0-1.65,1.29-2.84,3.26-2.84a5.93,5.93,0,0,1,2.7.65l-0.06,1.71a5.61,5.61,0,0,0-2.5-.85,1.34,1.34,0,0,0-1.59,1.23c0,1,1.23,1.47,2.25,2.12,1.64,1,2.49,1.91,2.49,3.4,0,1.87-1.39,3.2-3.7,3.2a6.75,6.75,0,0,1-2.89-.64l-0.17-2.11A5.62,5.62,0,0,0,65.41,30.2Z"/><path class="cls-2" d="M85.89,27c0,2.08.88,3.14,2.59,3.14s2.6-1.08,2.6-3.18V20.75H93V27c0,3.14-1.7,4.84-4.5,4.84S84,29.94,84,27V20.75h1.91V27Z"/><path class="cls-2" d="M97.72,20.75h2.49a5.47,5.47,0,0,1,3.35.74,2.82,2.82,0,0,1,1.26,2.29,3.08,3.08,0,0,1-2.35,3l3.47,4.71h-2.2L100.48,27H99.57v4.46H97.72V20.75Zm5.22,3.19c0-1.68-1.82-1.65-3.37-1.65v3.33C100.78,25.61,102.94,25.74,102.94,23.94Z"/><polygon class="cls-2" points="141.13 31.49 139.23 31.49 139.23 22.39 135.61 22.39 135.61 20.75 144.74 20.75 144.74 22.39 141.13 22.39 141.13 31.49"/><path class="cls-2" d="M54.18,20.4a0.12,0.12,0,0,0-.08,0,0.12,0.12,0,0,0-.08,0,36.45,36.45,0,0,0-5.29,11.08h1.92c0.17-.65.63-2,0.86-2.65H56.7c0.23,0.64.68,2,.86,2.65h1.92A36.61,36.61,0,0,0,54.18,20.4Zm-1.86,6.8a19.07,19.07,0,0,1,1.8-3.79,19.34,19.34,0,0,1,1.81,3.79H52.32Z"/><path class="cls-2" d="M113.88,20.4a0.1,0.1,0,0,0-.16,0,36.39,36.39,0,0,0-5.29,11.08h1.92c0.17-.65.63-2,0.86-2.65h5.18c0.23,0.64.68,2,.86,2.65h1.92A36.57,36.57,0,0,0,113.88,20.4ZM112,27.21a19.24,19.24,0,0,1,1.8-3.79,19.28,19.28,0,0,1,1.81,3.79H112Z"/><path class="cls-2" d="M124.63,24.81l7,7a0.13,0.13,0,0,0,.09,0,0.14,0.14,0,0,0,0-.09v-11H130v6.64l-7-7a0.13,0.13,0,0,0-.09,0,0.14,0.14,0,0,0,0,.09v11h1.82V24.81Z"/><path class="cls-2" d="M13.13,33.5l0.09,0.16a54.67,54.67,0,0,1,3.71-9.1,48.26,48.26,0,0,0-5.77,1.25A14.69,14.69,0,0,0,13.13,33.5Z"/><path class="cls-2" d="M25.93,11.55l-0.18-.2a14.75,14.75,0,0,0-11.57,5.83,57.09,57.09,0,0,1,8-1A52.57,52.57,0,0,1,25.93,11.55Z"/><path class="cls-2" d="M32.08,33.46c0.59-.9,1.17-1.83,1.72-2.79a58.64,58.64,0,0,0,5.14-11.52,14.68,14.68,0,0,0-4.48-5.07,55.6,55.6,0,0,1-5.72,13.66C28,29,27.3,30.13,26.53,31.27c0.58,0.85,1.19,1.66,1.79,2.46C29.6,33.67,30.85,33.59,32.08,33.46Z"/><path class="cls-2" d="M25.93,11.35H25.75a55,55,0,0,1,6,7.76,48.51,48.51,0,0,0,1.8-5.62A14.69,14.69,0,0,0,25.93,11.35Z"/><path class="cls-2" d="M38.55,33.41l0.26-.06a14.74,14.74,0,0,0,.74-12.93,56.71,56.71,0,0,1-3.09,7.41A52.54,52.54,0,0,1,38.55,33.41Z"/><path class="cls-2" d="M16.5,27.78c0.49,1,1,1.93,1.55,2.89a58.4,58.4,0,0,0,7.41,10.21,14.67,14.67,0,0,0,6.62-1.34,55.45,55.45,0,0,1-9-11.79c-0.7-1.22-1.34-2.44-1.95-3.67-1,.08-2,0.2-3,0.33C17.56,25.52,17,26.65,16.5,27.78Z"/><path class="cls-2" d="M38.72,33.51l0.09-.16a54.85,54.85,0,0,1-9.74,1.33,48,48,0,0,0,4,4.37A14.67,14.67,0,0,0,38.72,33.51Z"/><path class="cls-2" d="M13.3,33.4l-0.08.26a14.74,14.74,0,0,0,10.83,7.1,56.93,56.93,0,0,1-4.87-6.38A52.57,52.57,0,0,1,13.3,33.4Z"/><path class="cls-2" d="M29.21,17.12C28.13,17.06,27,17,25.93,17a58.48,58.48,0,0,0-12.55,1.31,14.67,14.67,0,0,0-2.15,6.41,55.58,55.58,0,0,1,14.7-1.87c1.41,0,2.79.06,4.16,0.15,0.44-.93.84-1.86,1.23-2.78C30.64,19.17,29.93,18.12,29.21,17.12Z"/><path class="cls-2" d="M148.14,22.92a2.15,2.15,0,1,1,.63,1.51A2.06,2.06,0,0,1,148.14,22.92Zm3.93,0a1.79,1.79,0,1,0-.52,1.27A1.73,1.73,0,0,0,152.07,22.92Zm-1.12,1.29-0.67-1.13H149.9v1.13h-0.38V21.57h0.68c0.64,0,1,.24,1,0.73a0.73,0.73,0,0,1-.51.72l0.72,1.19h-0.41Zm-1.05-2.32v0.88h0.25a0.89,0.89,0,0,0,.49-0.09,0.42,0.42,0,0,0,.13-0.36q0-.44-0.57-0.44h-0.3Z"/></svg>