<svg id="Layer_1" data-name="Layer 1" xmlns="http://www.w3.org/2000/svg" viewBox="0 0 394.96 113.78"><defs><style>.cls-1{fill:#fff;}.cls-2{fill:#bbbdbf;}</style></defs><title>Untitled-1</title><path class="cls-1" d="M91.3,30.4c18.84,29.88,8.42,70.68-25.28,81.53-6.69,2.12-9.21,2.32-6.26,1.11C77.39,106,93.3,90.54,94.14,70,95.2,50.84,80.9,33.39,61.37,34.44,50,35.55,43.85,44,37.71,52.43c-14-11.38.72-31.2,12.78-35.3C76.83,8.17,91.3,30.4,91.3,30.4Z"/><circle class="cls-2" cx="49.96" cy="57.1" r="6.89"/><path class="cls-1" d="M82.95,61.82a2.45,2.45,0,1,0-2.44-2.45A2.45,2.45,0,0,0,82.95,61.82Zm-7.77-6.61a3.61,3.61,0,1,0-3.61-3.61A3.61,3.61,0,0,0,75.18,55.21ZM62.1,53.16A5.17,5.17,0,1,0,56.93,48,5.17,5.17,0,0,0,62.1,53.16ZM50,64a6.89,6.89,0,1,0-6.89-6.88A6.89,6.89,0,0,0,50,64ZM17,57.26a2.45,2.45,0,1,0-2.45-2.45A2.45,2.45,0,0,0,17,57.26Zm7.77,8.94a3.61,3.61,0,1,0-3.61-3.61A3.61,3.61,0,0,0,24.75,66.2Zm13.08,5.16a5.17,5.17,0,1,0-5.16-5.16A5.16,5.16,0,0,0,37.83,71.36Z"/><path class="cls-1" d="M9.31,83.38C-9.53,53.5.89,12.7,34.59,1.85,41.28-.27,43.8-0.47,40.85.74,23.21,7.83,7.3,23.24,6.46,43.75,5.41,62.94,19.7,80.38,39.24,79.34c11.37-1.11,17.51-9.55,23.66-18,14,11.38-.72,31.2-12.78,35.3C23.78,105.61,9.31,83.38,9.31,83.38Z"/><path class="cls-1" d="M135.74,61.65V58.27q0-2.68-6.86-2.68H112.42v8.57h17.34q6,0,6-2.51m4.88,0q0,3.63-3.82,5.3a18.5,18.5,0,0,1-7,1.23h-8l16.31,6.92a1.83,1.83,0,0,1,1.3,1.69q0,1.65-2.88,1.65a7.29,7.29,0,0,1-1.8-.18L112.42,68.7v7.93a1.52,1.52,0,0,1-1.71,1.74,7.38,7.38,0,0,1-2.11-.15,1.47,1.47,0,0,1-1.06-1.58V53.32a1.52,1.52,0,0,1,1.71-1.71H128.9a20.31,20.31,0,0,1,7.52,1.19q4.2,1.69,4.2,5.58v3.23"/><path class="cls-1" d="M167.56,66.09V63.5q0-2.37-9.43-2.37a48.12,48.12,0,0,0-7.63.4q-2.92.55-2.92,2.15v2.42h20m4.53,2.11q0,1.91-1.3,1.91H147.73v0.15q0,3,3.52,3.85a16,16,0,0,0,2.22.29q1.47,0.09,3.74.09,1.71,0,1.71,2.15a1.52,1.52,0,0,1-1.71,1.74q-2.33,0-3.82,0t-2.24-.11a11,11,0,0,1-5.63-1.8,5.85,5.85,0,0,1-2.57-4.7V64q0-3.65,4-5.41a17,17,0,0,1,7.16-1.28h8.66a13.38,13.38,0,0,1,6,1.21q3.32,1.54,3.32,4.64V68.2"/><path class="cls-1" d="M203.4,76.64a1.53,1.53,0,0,1-1.74,1.74,6.75,6.75,0,0,1-2-.15,1.48,1.48,0,0,1-.95-1.58V63.23q0-1.43-2.37-1.87a7.76,7.76,0,0,0-1.3-.11q-0.86,0-2.18,0h-8q-1.21,0-2,0a10.74,10.74,0,0,0-1.3.13q-2.24.44-2.24,1.87V76.64a1.52,1.52,0,0,1-1.71,1.74,6.75,6.75,0,0,1-2-.15,1.48,1.48,0,0,1-.92-1.58V63.3q0-6,10.64-6h7.58q10.53,0,10.53,6V76.64"/><path class="cls-1" d="M230.61,71.82V63.72q0-2.5-5.71-2.51h-7.54a12.52,12.52,0,0,0-3.78.53q-2.37.77-2.37,2.33v7.76q0,1.5,2.42,2.2a13.64,13.64,0,0,0,3.76.46h7.54a11.11,11.11,0,0,0,3.45-.53q2.24-.72,2.24-2.13m4.7,0a5.52,5.52,0,0,1-3.56,5.27A15,15,0,0,1,225,78.37h-7.71a17.77,17.77,0,0,1-6.92-1.3q-3.82-1.71-3.82-5.25V64.07q0-3.54,3.8-5.36a15.28,15.28,0,0,1,6.92-1.41H225q10.28,0,10.28,6.73v7.8"/><path class="cls-1" d="M270.56,58.73a2.28,2.28,0,0,1-.64,1.38L255.15,78a2.27,2.27,0,0,1-1.76.9,2.19,2.19,0,0,1-1.71-.86L236.83,60.11a2.28,2.28,0,0,1-.64-1.38q0-1.52,2.53-1.52a2.6,2.6,0,0,1,2.11.73l12.59,15.34,12.53-15.34a2.6,2.6,0,0,1,2.11-.73q2.5,0,2.5,1.52"/><path class="cls-1" d="M277.9,76.64a1.53,1.53,0,0,1-1.74,1.74,6.63,6.63,0,0,1-2-.15,1.48,1.48,0,0,1-.9-1.58V58.95A1.53,1.53,0,0,1,275,57.23a6.51,6.51,0,0,1,2,.15,1.46,1.46,0,0,1,.92,1.56V76.64m0.64-22.22a2.07,2.07,0,0,1-1,1.8,3.94,3.94,0,0,1-4.09,0,2.16,2.16,0,0,1,0-3.6,3.94,3.94,0,0,1,4.09,0,2.07,2.07,0,0,1,1,1.8"/><path class="cls-1" d="M307.59,72.35q0,6-9.19,6H282.71A1.52,1.52,0,0,1,281,76.64q0-2.15,1.71-2.15h15.71q4.35,0,4.35-2.13V71.56q0-1.91-4-1.91h-7.54q-10.39,0-10.39-5.8V62.7q0-3.85,5.23-4.92a19.52,19.52,0,0,1,3.08-.35q2-.13,5.12-0.13,1.74,0,1.74,2.2a1.52,1.52,0,0,1-1.74,1.71H291q-2.62,0-3.14.07-2.31.31-2.31,1.43v1.1q0,1.89,5.78,1.89H299q8.59,0,8.59,5.69v1"/><path class="cls-1" d="M326.16,59.63a1.52,1.52,0,0,1-1.74,1.71h-7.34v15.3a1.52,1.52,0,0,1-1.71,1.74,6.63,6.63,0,0,1-2-.15,1.5,1.5,0,0,1-.95-1.58V61.34l-1.52,0c-0.38,0-.65-0.06-0.81-0.09a2.06,2.06,0,0,1,0-3.65,6.51,6.51,0,0,1,.81-0.07q0.59,0,1.52,0V53.32a1.52,1.52,0,0,1,1.71-1.71,6.62,6.62,0,0,1,2,.15,1.46,1.46,0,0,1,.95,1.56v4.15h7.34q1.74,0,1.74,2.15"/><path class="cls-1" d="M333.37,76.64a1.53,1.53,0,0,1-1.74,1.74,6.63,6.63,0,0,1-2-.15,1.48,1.48,0,0,1-.9-1.58V58.95a1.53,1.53,0,0,1,1.74-1.71,6.49,6.49,0,0,1,2,.15,1.46,1.46,0,0,1,.92,1.56V76.64M334,54.42a2.07,2.07,0,0,1-1,1.8,3.94,3.94,0,0,1-4.09,0,2.16,2.16,0,0,1,0-3.6,3.94,3.94,0,0,1,4.09,0,2.07,2.07,0,0,1,1,1.8"/><path class="cls-1" d="M366.44,76.64q0,1.74-2.15,1.74H347.12a19.34,19.34,0,0,1-7.12-.95A5.42,5.42,0,0,1,336.27,72V63.69q0-6.39,9.89-6.39h18.37a1.66,1.66,0,0,1,1.8,2,1.66,1.66,0,0,1-1.8,2h-18q-5.58,0-5.58,2.35V71.8q0,2.68,6.35,2.68H364.7q1.73,0,1.74,2.15"/><path class="cls-1" d="M395,72.35q0,6-9.19,6H370.09a1.52,1.52,0,0,1-1.71-1.74q0-2.15,1.71-2.15H385.8q4.35,0,4.35-2.13V71.56q0-1.91-4-1.91h-7.54q-10.39,0-10.4-5.8V62.7q0-3.85,5.23-4.92a19.56,19.56,0,0,1,3.08-.35q2-.13,5.12-0.13,1.74,0,1.74,2.2a1.52,1.52,0,0,1-1.74,1.71h-3.34q-2.61,0-3.14.07-2.31.31-2.31,1.43v1.1q0,1.89,5.78,1.89h7.69q8.59,0,8.59,5.69v1"/></svg>