<?xml version="1.0" encoding="utf-8"?>
<!-- Generator: Adobe Illustrator 18.1.1, SVG Export Plug-In . SVG Version: 6.00 Build 0)  -->
<svg version="1.1" id="Layer_1" xmlns="http://www.w3.org/2000/svg" xmlns:xlink="http://www.w3.org/1999/xlink" x="0px" y="0px"
	 viewBox="0 0 183.6 79.9" enable-background="new 0 0 183.6 79.9" xml:space="preserve">
<g>
	<g>
		<g>
			<path fill="#533D14" d="M19.6,70.8c4.4,5,11.9,4.4,15.5-1.2c0.7-1.1-1-2.4-1.7-1.2c-2.9,4.7-8.7,5-12.6,1.4
				C20.1,69,18.9,70,19.6,70.8L19.6,70.8z"/>
		</g>
	</g>
	<g>
		<g>
			<path fill="#533D14" d="M5.4,74.3c12.8,10.8,27.2,2.9,41.4,0.6c-0.2-0.7-0.5-1.5-0.7-2.2c0,0-0.1,0-0.1,0.1
				c-0.6,0.3-0.8,1-0.6,1.6c0,0,0,0.1,0,0.1c0.2,0.4,0.6,0.7,1,0.7c0.2,0,0.4,0,0.7,0c1.7,0,1.7-2.5-0.1-2.4
				c0.2,0.2,0.4,0.4,0.6,0.6c-0.2,0.5-0.4,1-0.6,1.6c0,0,0.1,0,0.1-0.1c1-0.6,0.7-2.6-0.7-2.2c-5.9,1.5-11.6,3.5-17.6,4.7
				c-8.4,1.7-15.4,0.6-22.8-3.9C5.4,73.1,4.9,73.9,5.4,74.3L5.4,74.3z"/>
		</g>
	</g>
	<g>
		<g>
			<path fill="#533D14" d="M1.3,37.4c4.9-1.8,16.5-0.6,18.9-6.6c0.5-1.2-1.4-2.3-2.1-1.1c-1.7,2.9-6.3,3.2-9.3,3.7
				c-2.9,0.5-5.7,0.9-8.3,2.4C-0.5,36.3,0.2,37.8,1.3,37.4L1.3,37.4z"/>
		</g>
	</g>
	<g>
		<g>
			<path fill="#533D14" d="M29.2,20.2c-3-2.5-6.5-1-9.9-0.6c-2.3,0.3-4.2-0.7-6.5-0.2c-2.8,0.5-4.9,2.3-7.8,2.5
				C3.6,22,4,24,5.3,23.9c1.8-0.1,3.3-0.6,4.9-1.3c2.7-1.2,4.9-0.5,7.7-0.3c3.8,0.3,6.5-2,10.7-1C29.3,21.4,29.7,20.7,29.2,20.2
				L29.2,20.2z"/>
		</g>
	</g>
	<g>
		<g>
			<path fill="#533D14" d="M5,11.5c3.9,3,7.3,3.7,11.7,2.2c4.7-1.7,6,2,9.9,2.7c3.2,0.6,5.8-1.1,9,0.7c1.4,0.8,2.8-1.2,1.4-2
				c-2-1.1-3.8-1.8-6.1-1.8c-2.6,0,0.2,2-4.7,0.4c-1.5-0.5-2.8-1.8-4.3-2.4c-2.2-0.9-3.5-0.6-5.6,0.1C13,12.7,12.6,13,9.5,12
				c-1.3-0.4-2.7-1-4-1.5C4.9,10.2,4.5,11.1,5,11.5L5,11.5z"/>
		</g>
	</g>
	<g>
		<g>
			<path fill="#533D14" d="M7.1,2.2c2,3.3,8.3,6.7,12.2,5.9c0.7-0.1,1.4-0.8,2-0.8c1.6-0.2,2.8,0.8,4,1.5c0.9,0.5,1.4,1.1,2.5,1.4
				c1.5,0.4,3.1,0.1,4.6,0.1c2.7,0,4.6,1,6.9,2.3c1.4,0.8,2.8-1.2,1.4-2c-2.3-1.3-4.5-2.5-7.3-2.7c-1.4-0.1-2.9,0.3-4.2,0.1
				c-2.5-0.5-2.8-1.7-4.7-2.6c-2.3-1.1-3-0.1-5.2,0.4C15.3,6.6,11.4,3.4,8,1.4C7.6,1.1,6.8,1.6,7.1,2.2L7.1,2.2z"/>
		</g>
	</g>
	<g>
		<g>
			<path fill="#533D14" d="M32.3,0.1c-1.5,2.8,0.8,4.6,3.5,4.4c2.2-0.2,4-1.2,6.2-0.4c2.9,1,4,4,5.7,6.2c0.8,1,2.2,0.1,2.1-1
				c0,0,0,0,0,0c0.1-0.6-0.6-1.3-1.2-1.1c-0.4,0.1-0.7,0.3-1,0.7c0.6,0,1.3-0.1,1.9-0.1c-2.2-3-4-6.2-7.9-7.1
				C40,1.4,38.7,1.7,37.1,2c-0.7,0.2-1.6,0.6-2.2,0.5c-1.6-0.2-1.5-1.2-2.1-2.3C32.7,0,32.4-0.1,32.3,0.1L32.3,0.1z"/>
		</g>
	</g>
	<g>
		<g>
			<path fill="#533D14" d="M53,14.1c2.7,1.3,3.9,3.8,4.4,6.6c0.1,0.5,0.5,0.8,1,0.9c0.1,0,0.2,0,0.3,0c0.5-0.1,0.9-0.5,0.9-1
				c0-3.4-2.8-7.4-6.3-7.8C52.5,12.7,52.3,13.8,53,14.1L53,14.1z"/>
		</g>
	</g>
	<g>
		<g>
			<path fill="#533D14" d="M45.1,36c4.7-2,11.2-3.8,13.7,2.4c0.5,1.3,2.5,0.3,1.9-0.9c-2.7-6.2-11.5-6.8-16.3-2.6
				C43.7,35.4,44.3,36.3,45.1,36L45.1,36z"/>
		</g>
	</g>
	<g>
		<g>
			<path fill="#533D14" d="M45.6,54.5c0.7,2.1,3.4,3.2,5.3,2.2c1.1-0.6,2-1.9,2.3-3.1c0.1-0.5,0.1-1,0.1-1.4c0-0.2,0-0.5,0-0.7
				c0-0.1-0.2-0.9-0.1-0.5c-0.3,0.4-0.7,0.7-1,1.1c0,0-0.1,0-0.1,0c0.4,0.1,0.7,0,0.9-0.3c0.1-0.1,0.2-0.3,0.2-0.5
				c0.1-0.7-0.7-1.1-1.3-0.9c-0.7,0.2-0.7,1-0.7,1.6c0,0.9,0,1.7-0.6,2.4c-1.2,1.7-2.7,0.8-3.8-0.3C46.5,53.4,45.4,53.7,45.6,54.5
				L45.6,54.5z"/>
		</g>
	</g>
	<g>
		<g>
			<path fill="#533D14" d="M43.6,55.9c-2.8-3.1-2.6-7.7,0.8-10.4c1.6-1.3,4.4-1.8,6.3-2.3c4-1.2,8.2-0.6,9.6,3.9
				c0.8,2.4,0.3,4.6,1.8,6.7c0.3,0.4,0.9,0.4,1.3,0.1c0,0,0.1-0.1,0.1-0.1c0.8-0.8-0.4-2.2-1.2-1.4c0,0-0.1,0.1-0.1,0.1
				c0.4,0,0.9,0.1,1.3,0.1c-1.7-2.2-0.9-5.3-2.3-7.7c-0.7-1.3-1.8-2.4-3.1-3.1c-3.1-1.6-6.5-0.4-9.6,0.7c-3.3,1.1-3.3,0.1-5,2.2
				c-1.2,1.4-2.3,2.6-2.8,4.5c-0.8,2.9-0.1,5.7,2.5,7.3C43.4,56.7,43.9,56.2,43.6,55.9L43.6,55.9z"/>
		</g>
	</g>
	<g>
		<g>
			<path fill="#533D14" d="M31.8,37.6c0.2-1,0.6-7.3,2.3-6.7c0.3,0.1,1,2.1,1.6,2.5c4.9,3.1,7.6-4.4,12.3-3c0.1-0.7,0.3-1.3,0.4-2
				c0.8,0.1,0.4-1.8,0.6-2.3c-0.1,0.2,1.8-2.1,1.7-1.9c0.4-0.5,3.2-5.5,2.8-5.5c1.4,0,1.6-2.2,0.2-2.2c-1.1,0-1.5,1-2.1,1.9
				c-1.6,2.5-2.5,5-5,6.8c-0.3,0.2-0.5,0.7-0.4,1c0.4,1.2,0.5,2.4,0.9,3.6c0.2,0.4,0.7,0.6,1.1,0.6c0,0,0.1,0,0.1,0
				c1-0.1,1.1-1.7,0.2-2c-3.3-1-4.5-0.1-7.1,1.8c-2,1.5-3.8,2.5-5.7,0.3c-0.4-0.5-0.3-1.3-0.9-1.7c-4.1-2.3-4.3,6.7-4.1,8.5
				C30.9,38,31.7,38.1,31.8,37.6L31.8,37.6z"/>
		</g>
	</g>
	<g>
		<g>
			<path fill="#533D14" d="M63.9,62.5c-2.3,5.5-6,6.8-11.7,6.3c-5.2-0.5-10.2-2.2-15.3-3.3c-3.9-0.9-8.3-2-12.3-1
				c-4,1-7.1,3.9-11.2,4.9c-1.3,0.3-0.9,2.3,0.4,2c5-1.2,9-5.2,14.3-5.2c6.7,0,13.1,2.7,19.6,3.9c6,1.1,17.3,1.7,17-7.3
				C64.8,62.2,64.1,62,63.9,62.5L63.9,62.5z"/>
		</g>
	</g>
	<g>
		<g>
			<path fill="#533D14" d="M11,61.2c14-4,29.7-1.9,43.9,0.7c1.3,0.2,1.5-1.8,0.2-2c-8.4-1.3-16.8-2.4-25.4-2.6
				C23.3,57.2,16.4,57,10.6,60C10,60.3,10.3,61.5,11,61.2L11,61.2z"/>
		</g>
	</g>
	<g>
		<g>
			<path fill="#533D14" d="M9.9,60.9c-0.1,1.3-1.4,2.2-1.6,3.5c0,0.5,0.1,1,0.4,1.3c0.2,0.2,0.4,0.2,0.6,0.3c0.4,0.4,0.7,0.9,1,1.5
				c0.6,1,2.3,5.5,3.8,2.7c0.7-1.2-1.1-2.1-1.7-0.9c-0.2,0.6,1,0,1,0.1c0,0-0.2-0.2-0.2-0.3c0-0.4-0.5-0.9-0.7-1.3
				c-0.6-1.1-1.3-2.4-2.2-3.3c-0.4-0.4-0.5,0.1-0.5-0.5c0-0.3,0.4-0.9,0.5-1.2c0.3-0.7,0.6-1.4,0.4-2.2C10.8,60.4,9.9,60.3,9.9,60.9
				L9.9,60.9z"/>
		</g>
	</g>
</g>
<g>
	<path fill="#533D14" stroke="#533D14" stroke-width="0.4" d="M88.7,27.1c0-0.3,0.3-0.6,0.6-0.6c0.3,0,0.6,0.3,0.6,0.6v13.3h8.3
		c0.3,0,0.5,0.2,0.5,0.5s-0.2,0.5-0.5,0.5h-8.8c-0.3,0-0.6-0.3-0.6-0.6V27.1z"/>
	<path fill="#533D14" stroke="#533D14" stroke-width="0.4" d="M101.6,26.9c0-0.4,0.3-0.6,0.6-0.6c0.4,0,0.7,0.3,0.7,0.6v0.4
		c0,0.4-0.3,0.6-0.7,0.6c-0.4,0-0.6-0.3-0.6-0.6V26.9z M101.7,31.1c0-0.3,0.2-0.5,0.5-0.5c0.3,0,0.5,0.2,0.5,0.5V41
		c0,0.3-0.2,0.5-0.5,0.5s-0.5-0.2-0.5-0.5V31.1z"/>
	<path fill="#533D14" stroke="#533D14" stroke-width="0.4" d="M106.2,40.3c-0.1-0.1-0.2-0.2-0.2-0.4c0-0.3,0.2-0.5,0.5-0.5
		c0.1,0,0.3,0,0.3,0.1c1.1,0.8,2.3,1.2,3.6,1.2c1.5,0,2.6-0.8,2.6-2.1v0c0-1.3-1.4-1.7-2.9-2.2c-1.8-0.5-3.7-1-3.7-3v0
		c0-1.7,1.5-3,3.6-3c1.2,0,2.5,0.4,3.5,1c0.1,0.1,0.3,0.2,0.3,0.5c0,0.3-0.2,0.5-0.5,0.5c-0.1,0-0.2,0-0.3-0.1c-0.9-0.6-2-0.9-3-0.9
		c-1.5,0-2.5,0.8-2.5,1.9v0c0,1.2,1.5,1.7,3,2.1c1.7,0.5,3.6,1.1,3.6,3v0c0,1.9-1.7,3.2-3.7,3.2C108.9,41.7,107.3,41.1,106.2,40.3z"
		/>
	<path fill="#533D14" stroke="#533D14" stroke-width="0.4" d="M116.5,38.3L116.5,38.3c0-2.3,1.9-3.6,4.7-3.6c1.5,0,2.5,0.2,3.6,0.5
		v-0.5c0-2.2-1.3-3.3-3.6-3.3c-1.2,0-2.2,0.3-3.1,0.7c-0.1,0-0.2,0.1-0.2,0.1c-0.3,0-0.5-0.2-0.5-0.5c0-0.3,0.2-0.4,0.3-0.5
		c1.1-0.5,2.2-0.8,3.6-0.8c1.5,0,2.6,0.4,3.4,1.2c0.7,0.7,1.1,1.7,1.1,3V41c0,0.3-0.2,0.5-0.5,0.5s-0.5-0.2-0.5-0.5v-1.4
		c-0.7,1-2.1,2.1-4.1,2.1C118.7,41.7,116.5,40.6,116.5,38.3z M124.8,37.4v-1.2c-0.9-0.2-2.1-0.5-3.7-0.5c-2.3,0-3.6,1-3.6,2.5v0
		c0,1.6,1.5,2.5,3.1,2.5C122.9,40.7,124.8,39.4,124.8,37.4z"/>
	<path fill="#533D14" stroke="#533D14" stroke-width="0.4" d="M136.1,27.2c0-0.3,0.3-0.6,0.6-0.6h5.7c1.8,0,3.3,0.6,4.2,1.5
		c0.7,0.7,1.1,1.7,1.1,2.8v0c0,2.5-1.8,3.9-4.3,4.2l4.2,5.5c0.1,0.1,0.2,0.3,0.2,0.4c0,0.3-0.3,0.6-0.6,0.6c-0.2,0-0.4-0.1-0.5-0.3
		l-4.6-5.9h-4.9V41c0,0.3-0.3,0.6-0.6,0.6c-0.3,0-0.6-0.3-0.6-0.6V27.2z M142.2,34.3c2.5,0,4.3-1.2,4.3-3.4v0c0-2-1.6-3.2-4.3-3.2
		h-5.1v6.7H142.2z"/>
	<path fill="#533D14" stroke="#533D14" stroke-width="0.4" d="M150.3,36.1L150.3,36.1c0-3.1,2.4-5.7,5.6-5.7c3.2,0,5.5,2.6,5.5,5.6
		v0c0,3-2.4,5.7-5.6,5.7C152.6,41.7,150.3,39.1,150.3,36.1z M160.2,36.1L160.2,36.1c0-2.6-1.9-4.7-4.4-4.7c-2.6,0-4.4,2.1-4.4,4.6v0
		c0,2.6,1.9,4.7,4.4,4.7C158.4,40.7,160.2,38.6,160.2,36.1z"/>
	<path fill="#533D14" stroke="#533D14" stroke-width="0.4" d="M163.9,40.3c-0.1-0.1-0.2-0.2-0.2-0.4c0-0.3,0.2-0.5,0.5-0.5
		c0.1,0,0.3,0,0.3,0.1c1.1,0.8,2.3,1.2,3.6,1.2c1.5,0,2.6-0.8,2.6-2.1v0c0-1.3-1.4-1.7-2.9-2.2c-1.8-0.5-3.7-1-3.7-3v0
		c0-1.7,1.5-3,3.6-3c1.2,0,2.5,0.4,3.5,1c0.1,0.1,0.3,0.2,0.3,0.5c0,0.3-0.2,0.5-0.5,0.5c-0.1,0-0.2,0-0.3-0.1c-0.9-0.6-2-0.9-3-0.9
		c-1.5,0-2.5,0.8-2.5,1.9v0c0,1.2,1.5,1.7,3,2.1c1.7,0.5,3.6,1.1,3.6,3v0c0,1.9-1.7,3.2-3.7,3.2C166.6,41.7,165,41.1,163.9,40.3z"/>
	<path fill="#533D14" stroke="#533D14" stroke-width="0.4" d="M174.2,40.3c-0.1-0.1-0.2-0.2-0.2-0.4c0-0.3,0.2-0.5,0.5-0.5
		c0.1,0,0.3,0,0.3,0.1c1.1,0.8,2.3,1.2,3.6,1.2c1.5,0,2.6-0.8,2.6-2.1v0c0-1.3-1.4-1.7-2.9-2.2c-1.8-0.5-3.7-1-3.7-3v0
		c0-1.7,1.5-3,3.6-3c1.2,0,2.5,0.4,3.5,1c0.1,0.1,0.3,0.2,0.3,0.5c0,0.3-0.2,0.5-0.5,0.5c-0.1,0-0.2,0-0.3-0.1c-0.9-0.6-2-0.9-3-0.9
		c-1.5,0-2.5,0.8-2.5,1.9v0c0,1.2,1.5,1.7,3,2.1c1.7,0.5,3.6,1.1,3.6,3v0c0,1.9-1.7,3.2-3.7,3.2C176.9,41.7,175.3,41.1,174.2,40.3z"
		/>
	<path fill="#533D14" stroke="#533D14" stroke-width="0.4" d="M101.6,59.5L101.6,59.5c0-4.2,3.1-7.7,7.4-7.7c2.5,0,4,0.8,5.4,2.1
		c0.1,0.1,0.2,0.3,0.2,0.4c0,0.3-0.3,0.6-0.6,0.6c-0.1,0-0.3-0.1-0.4-0.1c-1.2-1.1-2.6-1.9-4.7-1.9c-3.6,0-6.2,2.9-6.2,6.6v0
		c0,3.7,2.7,6.7,6.3,6.7c2,0,3.4-0.7,4.8-2.1c0.1-0.1,0.2-0.2,0.4-0.2c0.3,0,0.5,0.3,0.5,0.5c0,0.2-0.1,0.3-0.2,0.4
		c-1.5,1.4-3.1,2.3-5.6,2.3C104.8,67.1,101.6,63.7,101.6,59.5z"/>
	<path fill="#533D14" stroke="#533D14" stroke-width="0.4" d="M122,67.1c-2.8,0-5.3-2.3-5.3-5.6v0c0-3.1,2.2-5.6,5.1-5.6
		c3,0,5,2.5,5,5.6c0,0.3-0.3,0.5-0.5,0.5h-8.5c0.2,2.7,2.1,4.3,4.2,4.3c1.5,0,2.6-0.6,3.5-1.5c0.1-0.1,0.2-0.1,0.3-0.1
		c0.3,0,0.5,0.2,0.5,0.5c0,0.1,0,0.2-0.2,0.4C125.2,66.4,124,67.1,122,67.1z M125.7,60.9c-0.1-2.2-1.4-4.2-3.9-4.2
		c-2.1,0-3.8,1.8-4,4.2H125.7z"/>
	<path fill="#533D14" stroke="#533D14" stroke-width="0.4" d="M129.8,56.5c0-0.3,0.2-0.5,0.5-0.5c0.3,0,0.5,0.2,0.5,0.5v1.6
		c0.7-1.3,1.9-2.3,3.9-2.3c2.7,0,4.3,1.9,4.3,4.4v6.2c0,0.3-0.2,0.5-0.5,0.5s-0.5-0.2-0.5-0.5v-6c0-2.2-1.2-3.7-3.4-3.7
		c-2.1,0-3.7,1.6-3.7,3.9v5.8c0,0.3-0.2,0.5-0.5,0.5c-0.3,0-0.5-0.2-0.5-0.5V56.5z"/>
	<path fill="#533D14" stroke="#533D14" stroke-width="0.4" d="M143.4,64.1V57h-1.2c-0.3,0-0.5-0.2-0.5-0.5s0.2-0.5,0.5-0.5h1.2v-3
		c0-0.3,0.2-0.5,0.5-0.5s0.5,0.2,0.5,0.5v3h3.4c0.3,0,0.5,0.2,0.5,0.5c0,0.3-0.2,0.5-0.5,0.5h-3.4v7c0,1.5,0.9,2.1,2.2,2.1
		c0.7,0,1.1-0.2,1.2-0.2c0.2,0,0.5,0.2,0.5,0.5c0,0.2-0.1,0.4-0.3,0.4c-0.4,0.1-0.9,0.3-1.5,0.3C144.8,67,143.4,66.1,143.4,64.1z"/>
	<path fill="#533D14" stroke="#533D14" stroke-width="0.4" d="M155.5,67.1c-2.8,0-5.3-2.3-5.3-5.6v0c0-3.1,2.2-5.6,5.1-5.6
		c3,0,5,2.5,5,5.6c0,0.3-0.3,0.5-0.5,0.5h-8.5c0.2,2.7,2.1,4.3,4.2,4.3c1.5,0,2.6-0.6,3.5-1.5c0.1-0.1,0.2-0.1,0.3-0.1
		c0.3,0,0.5,0.2,0.5,0.5c0,0.1,0,0.2-0.2,0.4C158.7,66.4,157.5,67.1,155.5,67.1z M159.2,60.9c-0.1-2.2-1.4-4.2-3.9-4.2
		c-2.1,0-3.8,1.8-4,4.2H159.2z"/>
	<path fill="#533D14" stroke="#533D14" stroke-width="0.4" d="M163.4,56.5c0-0.3,0.2-0.5,0.5-0.5c0.3,0,0.5,0.2,0.5,0.5v2.6
		c0.9-2.1,2.8-3.2,4.3-3.2c0.3,0,0.5,0.3,0.5,0.6c0,0.3-0.2,0.6-0.5,0.6c-2.3,0.2-4.3,1.9-4.3,5.4v4c0,0.3-0.2,0.5-0.5,0.5
		c-0.3,0-0.5-0.2-0.5-0.5V56.5z"/>
</g>
<g>
	<path fill="#533D14" stroke="#533D14" stroke-width="0.4" d="M124.2,13h-2.5c-0.1,0-0.3-0.1-0.3-0.3s0.1-0.3,0.3-0.3h5.5
		c0.1,0,0.3,0.1,0.3,0.3s-0.1,0.3-0.3,0.3h-2.5v6.9c0,0.2-0.1,0.3-0.3,0.3s-0.3-0.1-0.3-0.3V13z"/>
	<path fill="#533D14" stroke="#533D14" stroke-width="0.4" d="M128.9,12.4c0-0.2,0.1-0.3,0.3-0.3s0.3,0.1,0.3,0.3v3.2
		c0.4-0.7,1-1.2,2-1.2c1.4,0,2.2,1,2.2,2.3v3.2c0,0.2-0.1,0.3-0.3,0.3c-0.2,0-0.3-0.1-0.3-0.3v-3.1c0-1.2-0.6-1.9-1.8-1.9
		c-1.1,0-1.9,0.8-1.9,2v3c0,0.2-0.1,0.3-0.3,0.3c-0.2,0-0.3-0.1-0.3-0.3V12.4z"/>
	<path fill="#533D14" stroke="#533D14" stroke-width="0.4" d="M138,20.3c-1.5,0-2.8-1.2-2.8-2.9v0c0-1.6,1.1-2.9,2.7-2.9
		c1.6,0,2.6,1.3,2.6,2.9c0,0.1-0.1,0.3-0.3,0.3h-4.4c0.1,1.4,1.1,2.2,2.2,2.2c0.8,0,1.4-0.3,1.8-0.8c0,0,0.1-0.1,0.2-0.1
		c0.1,0,0.3,0.1,0.3,0.3c0,0.1,0,0.1-0.1,0.2C139.6,19.9,139,20.3,138,20.3z M139.9,17.1c-0.1-1.1-0.7-2.2-2-2.2
		c-1.1,0-2,0.9-2.1,2.2H139.9z"/>
</g>
</svg>
